<mxfile host="65bd71144e">
    <diagram id="r3IJwbnXIx8AKXsgv2tI" name="Страница 1">
        <mxGraphModel dx="-556" dy="554" grid="1" gridSize="10" guides="1" tooltips="1" connect="1" arrows="1" fold="1" page="1" pageScale="1" pageWidth="827" pageHeight="1169" math="0" shadow="0">
            <root>
                <mxCell id="0"/>
                <mxCell id="1" parent="0"/>
                <mxCell id="14" style="edgeStyle=none;html=1;entryX=0.5;entryY=0;entryDx=0;entryDy=0;fontColor=#000000;exitX=0.5;exitY=1;exitDx=0;exitDy=0;" parent="1" source="24" target="13" edge="1">
                    <mxGeometry relative="1" as="geometry">
                        <mxPoint x="2060" y="460" as="sourcePoint"/>
                    </mxGeometry>
                </mxCell>
                <mxCell id="9" value="" style="edgeStyle=none;html=1;entryX=0.5;entryY=0;entryDx=0;entryDy=0;" parent="1" source="10" target="12" edge="1">
                    <mxGeometry relative="1" as="geometry">
                        <mxPoint x="2068.75" y="240" as="targetPoint"/>
                    </mxGeometry>
                </mxCell>
                <mxCell id="10" value="Начало" style="ellipse;whiteSpace=wrap;html=1;" parent="1" vertex="1">
                    <mxGeometry x="2008.75" y="110" width="120" height="80" as="geometry"/>
                </mxCell>
                <mxCell id="11" style="edgeStyle=none;html=1;exitX=0.5;exitY=1;exitDx=0;exitDy=0;entryX=0.5;entryY=0;entryDx=0;entryDy=0;" parent="1" source="12" target="24" edge="1">
                    <mxGeometry relative="1" as="geometry">
                        <mxPoint x="2068.745" y="370" as="targetPoint"/>
                        <mxPoint x="2068.75" y="370" as="sourcePoint"/>
                    </mxGeometry>
                </mxCell>
                <mxCell id="12" value="&lt;span style=&quot;background-color: rgb(30 , 30 , 30) ; font-family: &amp;#34;consolas&amp;#34; , &amp;#34;courier new&amp;#34; , monospace ; font-size: 14px ; color: rgb(86 , 156 , 214)&quot;&gt;string&lt;/span&gt;&lt;span style=&quot;background-color: rgb(30 , 30 , 30) ; color: rgb(212 , 212 , 212) ; font-family: &amp;#34;consolas&amp;#34; , &amp;#34;courier new&amp;#34; , monospace ; font-size: 14px&quot;&gt;[]&amp;nbsp;&lt;/span&gt;&lt;span style=&quot;background-color: rgb(30 , 30 , 30) ; font-family: &amp;#34;consolas&amp;#34; , &amp;#34;courier new&amp;#34; , monospace ; font-size: 14px ; color: rgb(156 , 220 , 254)&quot;&gt;a&lt;/span&gt;&lt;span style=&quot;background-color: rgb(30 , 30 , 30) ; color: rgb(212 , 212 , 212) ; font-family: &amp;#34;consolas&amp;#34; , &amp;#34;courier new&amp;#34; , monospace ; font-size: 14px&quot;&gt;,&amp;nbsp;&lt;/span&gt;&lt;span style=&quot;background-color: rgb(30 , 30 , 30) ; font-family: &amp;#34;consolas&amp;#34; , &amp;#34;courier new&amp;#34; , monospace ; font-size: 14px ; color: rgb(86 , 156 , 214)&quot;&gt;string&lt;/span&gt;&lt;span style=&quot;background-color: rgb(30 , 30 , 30) ; color: rgb(212 , 212 , 212) ; font-family: &amp;#34;consolas&amp;#34; , &amp;#34;courier new&amp;#34; , monospace ; font-size: 14px&quot;&gt;[]&amp;nbsp;&lt;/span&gt;&lt;span style=&quot;background-color: rgb(30 , 30 , 30) ; font-family: &amp;#34;consolas&amp;#34; , &amp;#34;courier new&amp;#34; , monospace ; font-size: 14px ; color: rgb(156 , 220 , 254)&quot;&gt;b&lt;/span&gt;&lt;br&gt;&lt;div style=&quot;color: rgb(212 , 212 , 212) ; background-color: rgb(30 , 30 , 30) ; font-family: &amp;#34;consolas&amp;#34; , &amp;#34;courier new&amp;#34; , monospace ; font-size: 14px ; line-height: 19px&quot;&gt;&lt;span style=&quot;color: rgb(156 , 220 , 254)&quot;&gt;int count&lt;/span&gt;&amp;nbsp;=&amp;nbsp;&lt;span style=&quot;color: rgb(181 , 206 , 168)&quot;&gt;0&lt;/span&gt;&lt;/div&gt;" style="rounded=0;whiteSpace=wrap;html=1;" parent="1" vertex="1">
                    <mxGeometry x="1980" y="240" width="177.5" height="78.5" as="geometry"/>
                </mxCell>
                <mxCell id="16" value="" style="edgeStyle=none;html=1;fontColor=#000000;exitX=0;exitY=0.5;exitDx=0;exitDy=0;" parent="1" source="13" target="21" edge="1">
                    <mxGeometry relative="1" as="geometry">
                        <mxPoint x="2068.75" y="777.5" as="targetPoint"/>
                        <Array as="points">
                            <mxPoint x="1860" y="623"/>
                        </Array>
                    </mxGeometry>
                </mxCell>
                <mxCell id="17" value="YES" style="edgeLabel;html=1;align=center;verticalAlign=middle;resizable=0;points=[];fontColor=#000000;labelBorderColor=none;labelBackgroundColor=#FFFFFF;" parent="16" vertex="1" connectable="0">
                    <mxGeometry x="-0.326" y="1" relative="1" as="geometry">
                        <mxPoint x="-47" y="-1" as="offset"/>
                    </mxGeometry>
                </mxCell>
                <mxCell id="18" style="edgeStyle=none;html=1;exitX=1;exitY=0.5;exitDx=0;exitDy=0;fontColor=#000000;entryX=1;entryY=0.5;entryDx=0;entryDy=0;" parent="1" source="13" target="24" edge="1">
                    <mxGeometry relative="1" as="geometry">
                        <mxPoint x="2190.9300000000003" y="430" as="targetPoint"/>
                        <Array as="points">
                            <mxPoint x="2200" y="623"/>
                            <mxPoint x="2200" y="520"/>
                            <mxPoint x="2200" y="419"/>
                        </Array>
                    </mxGeometry>
                </mxCell>
                <mxCell id="19" value="NO" style="edgeLabel;html=1;align=center;verticalAlign=middle;resizable=0;points=[];fontColor=#000000;labelBackgroundColor=#FFFFFF;" parent="18" vertex="1" connectable="0">
                    <mxGeometry x="0.6893" relative="1" as="geometry">
                        <mxPoint y="100" as="offset"/>
                    </mxGeometry>
                </mxCell>
                <mxCell id="13" value="&lt;div style=&quot;color: rgb(212 , 212 , 212) ; background-color: rgb(30 , 30 , 30) ; font-family: &amp;#34;consolas&amp;#34; , &amp;#34;courier new&amp;#34; , monospace ; font-size: 14px ; line-height: 19px&quot;&gt;&lt;span style=&quot;color: #c586c0&quot;&gt;if&lt;/span&gt; (&lt;span style=&quot;color: #9cdcfe&quot;&gt;a&lt;/span&gt;[&lt;span style=&quot;color: #9cdcfe&quot;&gt;i&lt;/span&gt;].&lt;span style=&quot;color: #9cdcfe&quot;&gt;Length&lt;/span&gt; &amp;lt;= &lt;span style=&quot;color: #b5cea8&quot;&gt;3&lt;/span&gt;)&lt;/div&gt;" style="rhombus;whiteSpace=wrap;html=1;fillColor=#f8cecc;strokeColor=#b85450;" parent="1" vertex="1">
                    <mxGeometry x="1973.13" y="565" width="191.24" height="115" as="geometry"/>
                </mxCell>
                <mxCell id="21" value="&lt;div style=&quot;color: rgb(212 , 212 , 212) ; background-color: rgb(30 , 30 , 30) ; font-family: &amp;#34;consolas&amp;#34; , &amp;#34;courier new&amp;#34; , monospace ; font-size: 14px ; line-height: 19px&quot;&gt;&lt;div&gt;&lt;span style=&quot;color: #9cdcfe&quot;&gt;b&lt;/span&gt;[&lt;span style=&quot;color: #9cdcfe&quot;&gt;count&lt;/span&gt;] = &lt;span style=&quot;color: #9cdcfe&quot;&gt;a&lt;/span&gt;[&lt;span style=&quot;color: #9cdcfe&quot;&gt;i&lt;/span&gt;]&lt;/div&gt;&lt;div&gt;&amp;nbsp;&lt;span style=&quot;color: rgb(156 , 220 , 254)&quot;&gt;count=count&lt;/span&gt;+1&lt;/div&gt;&lt;/div&gt;" style="whiteSpace=wrap;html=1;shadow=0;labelBackgroundColor=#000000;labelBorderColor=none;fontColor=#FFFFFF;strokeColor=#000000;fillColor=#000000;" parent="1" vertex="1">
                    <mxGeometry x="1800" y="480" width="120" height="60" as="geometry"/>
                </mxCell>
                <mxCell id="22" value="" style="edgeStyle=none;html=1;fontColor=#000000;exitX=0.5;exitY=0;exitDx=0;exitDy=0;entryX=0;entryY=0.5;entryDx=0;entryDy=0;" parent="1" source="21" target="24" edge="1">
                    <mxGeometry relative="1" as="geometry">
                        <mxPoint x="2280.0041816115163" y="879.9968830510127" as="sourcePoint"/>
                        <mxPoint x="1946.56" y="430" as="targetPoint"/>
                        <Array as="points">
                            <mxPoint x="1860" y="419"/>
                        </Array>
                    </mxGeometry>
                </mxCell>
                <mxCell id="24" value="&lt;span style=&quot;background-color: rgb(30 , 30 , 30) ; font-family: &amp;#34;consolas&amp;#34; , &amp;#34;courier new&amp;#34; , monospace ; font-size: 14px ; color: rgb(197 , 134 , 192)&quot;&gt;for&lt;/span&gt;&lt;span style=&quot;background-color: rgb(30 , 30 , 30) ; color: rgb(212 , 212 , 212) ; font-family: &amp;#34;consolas&amp;#34; , &amp;#34;courier new&amp;#34; , monospace ; font-size: 14px&quot;&gt;&amp;nbsp;(&lt;/span&gt;&lt;span style=&quot;background-color: rgb(30 , 30 , 30) ; font-family: &amp;#34;consolas&amp;#34; , &amp;#34;courier new&amp;#34; , monospace ; font-size: 14px ; color: rgb(86 , 156 , 214)&quot;&gt;int&lt;/span&gt;&lt;span style=&quot;background-color: rgb(30 , 30 , 30) ; color: rgb(212 , 212 , 212) ; font-family: &amp;#34;consolas&amp;#34; , &amp;#34;courier new&amp;#34; , monospace ; font-size: 14px&quot;&gt;&amp;nbsp;&lt;/span&gt;&lt;span style=&quot;background-color: rgb(30 , 30 , 30) ; font-family: &amp;#34;consolas&amp;#34; , &amp;#34;courier new&amp;#34; , monospace ; font-size: 14px ; color: rgb(156 , 220 , 254)&quot;&gt;i&lt;/span&gt;&lt;span style=&quot;background-color: rgb(30 , 30 , 30) ; color: rgb(212 , 212 , 212) ; font-family: &amp;#34;consolas&amp;#34; , &amp;#34;courier new&amp;#34; , monospace ; font-size: 14px&quot;&gt;&amp;nbsp;&lt;/span&gt;&lt;span style=&quot;background-color: rgb(30 , 30 , 30) ; color: rgb(212 , 212 , 212) ; font-family: &amp;#34;consolas&amp;#34; , &amp;#34;courier new&amp;#34; , monospace ; font-size: 14px&quot;&gt;=&lt;/span&gt;&lt;span style=&quot;background-color: rgb(30 , 30 , 30) ; color: rgb(212 , 212 , 212) ; font-family: &amp;#34;consolas&amp;#34; , &amp;#34;courier new&amp;#34; , monospace ; font-size: 14px&quot;&gt;&amp;nbsp;&lt;/span&gt;&lt;span style=&quot;background-color: rgb(30 , 30 , 30) ; font-family: &amp;#34;consolas&amp;#34; , &amp;#34;courier new&amp;#34; , monospace ; font-size: 14px ; color: rgb(181 , 206 , 168)&quot;&gt;0&lt;/span&gt;&lt;span style=&quot;background-color: rgb(30 , 30 , 30) ; color: rgb(212 , 212 , 212) ; font-family: &amp;#34;consolas&amp;#34; , &amp;#34;courier new&amp;#34; , monospace ; font-size: 14px&quot;&gt;;&amp;nbsp;&lt;/span&gt;&lt;br style=&quot;color: rgb(0 , 0 , 0)&quot;&gt;&lt;div style=&quot;color: rgb(212 , 212 , 212) ; background-color: rgb(30 , 30 , 30) ; font-family: &amp;#34;consolas&amp;#34; , &amp;#34;courier new&amp;#34; , monospace ; font-size: 14px ; line-height: 19px&quot;&gt;&lt;div&gt;&lt;span style=&quot;color: rgb(156 , 220 , 254)&quot;&gt;i&lt;/span&gt;&amp;nbsp;&amp;lt;&amp;nbsp;&lt;span style=&quot;color: rgb(156 , 220 , 254)&quot;&gt;a&lt;/span&gt;.&lt;span style=&quot;color: rgb(156 , 220 , 254)&quot;&gt;Length&lt;/span&gt;;&amp;nbsp;&lt;/div&gt;&lt;div&gt;&lt;span style=&quot;color: rgb(156 , 220 , 254)&quot;&gt;i=i+1&lt;/span&gt;)&lt;/div&gt;&lt;/div&gt;" style="rounded=0;whiteSpace=wrap;html=1;" parent="1" vertex="1">
                    <mxGeometry x="1980" y="380" width="177.5" height="78.5" as="geometry"/>
                </mxCell>
            </root>
        </mxGraphModel>
    </diagram>
</mxfile>